<svg width="21" height="20" viewBox="0 0 21 20" fill="none" xmlns="http://www.w3.org/2000/svg">
<path d="M10.4199 0.83333L17.2699 2.35C17.4588 2.39444 17.6144 2.49444 17.7366 2.65C17.8588 2.80555 17.9199 2.97777 17.9199 3.16666V11.4833C17.9199 12.3278 17.7227 13.1167 17.3283 13.85C16.9338 14.5833 16.3866 15.1833 15.6866 15.65L10.4199 19.1667L5.15326 15.65C4.45326 15.1833 3.90603 14.5833 3.51159 13.85C3.11714 13.1167 2.91992 12.3278 2.91992 11.4833V3.16666C2.91992 2.97777 2.98103 2.80555 3.10326 2.65C3.22548 2.49444 3.38103 2.39444 3.56992 2.35L10.4199 0.83333ZM10.4199 2.53333L4.58659 3.83333V11.4833C4.58659 12.05 4.71714 12.5778 4.97826 13.0667C5.23937 13.5556 5.60326 13.9556 6.06992 14.2667L10.4199 17.1667L14.7699 14.2667C15.2366 13.9556 15.6005 13.5556 15.8616 13.0667C16.1227 12.5778 16.2533 12.05 16.2533 11.4833V3.83333L10.4199 2.53333ZM14.1366 6.85L15.3033 8.03333L10.0033 13.3333L6.46992 9.8L7.65326 8.61666L10.0033 10.9833L14.1366 6.85Z" fill="#6F41D2"/>
</svg>
