<svg xmlns="http://www.w3.org/2000/svg" width="21" height="20" fill="none" viewBox="0 0 21 20"><path fill="#9CA3AF" d="M1.25342 12.5C1.25342 11.5444 1.48675 10.6556 1.95342 9.83334C2.40897 9.03334 3.02564 8.38889 3.80342 7.9C3.94786 6.82223 4.32842 5.83889 4.94508 4.95C5.56175 4.06112 6.34231 3.36667 7.28675 2.86667C8.26453 2.34445 9.30897 2.08334 10.4201 2.08334C11.5312 2.08334 12.5756 2.34445 13.5534 2.86667C14.4979 3.36667 15.2784 4.06112 15.8951 4.95C16.5118 5.83889 16.8923 6.82223 17.0368 7.9C17.8145 8.38889 18.4312 9.03334 18.8868 9.83334C19.3534 10.6556 19.5868 11.5389 19.5868 12.4833C19.5868 13.4278 19.3645 14.3056 18.9201 15.1167C18.4756 15.9056 17.8729 16.55 17.1118 17.05C16.3506 17.55 15.509 17.8333 14.5868 17.9L6.25342 17.9167C5.3312 17.8389 4.48953 17.55 3.72842 17.05C2.96731 16.55 2.36453 15.9056 1.92008 15.1167C1.47564 14.3056 1.25342 13.4333 1.25342 12.5ZM14.4534 16.2333C15.0979 16.1889 15.684 15.9944 16.2118 15.65C16.7395 15.3056 17.1562 14.8556 17.4618 14.3C17.7673 13.7444 17.9201 13.1417 17.9201 12.4917C17.9201 11.8417 17.7618 11.2361 17.4451 10.675C17.1284 10.1139 16.6979 9.66112 16.1534 9.31667L15.4868 8.9L15.3868 8.11667C15.2756 7.29445 14.9868 6.55278 14.5201 5.89167C14.0534 5.23056 13.4618 4.70834 12.7451 4.325C12.0284 3.94167 11.2534 3.75 10.4201 3.75C9.58675 3.75 8.81175 3.94167 8.09509 4.325C7.37842 4.70834 6.78675 5.23056 6.32009 5.89167C5.85342 6.55278 5.56453 7.29445 5.45342 8.11667L5.35342 8.9L4.68675 9.31667C4.14231 9.66112 3.71175 10.1139 3.39508 10.675C3.07842 11.2361 2.92008 11.8417 2.92008 12.4917C2.92008 13.1417 3.07286 13.7444 3.37842 14.3C3.68397 14.8556 4.10064 15.3056 4.62842 15.65C5.1562 15.9944 5.74231 16.1889 6.38675 16.2333L6.52008 16.25H14.3201L14.4534 16.2333ZM11.2534 11.25V14.5833H9.58675V11.25H7.08675L10.4201 7.08334L13.7534 11.25H11.2534Z"/></svg>