<svg width="26" height="24" viewBox="0 0 26 24" fill="none" xmlns="http://www.w3.org/2000/svg">
<path d="M3 20H23V22H3V20ZM5 12H7V19H5V12ZM10 12H12V19H10V12ZM14 12H16V19H14V12ZM19 12H21V19H19V12ZM3 7L13 2L23 7V11H3V7ZM13 8C13.28 8 13.5167 7.90333 13.71 7.71C13.9033 7.51667 14 7.28 14 7C14 6.72 13.9033 6.48333 13.71 6.29C13.5167 6.09667 13.28 6 13 6C12.72 6 12.4833 6.09667 12.29 6.29C12.0967 6.48333 12 6.72 12 7C12 7.28 12.0967 7.51667 12.29 7.71C12.4833 7.90333 12.72 8 13 8Z" fill="#6F41D2"/>
</svg>
