<svg xmlns="http://www.w3.org/2000/svg" width="21" height="20" fill="none" viewBox="0 0 21 20"><path fill="#9CA3AF" d="M17.0866 18.3333H3.75326C3.51992 18.3333 3.3227 18.2528 3.16159 18.0917C3.00048 17.9306 2.91992 17.7333 2.91992 17.5V2.49999C2.91992 2.26666 3.00048 2.06944 3.16159 1.90833C3.3227 1.74722 3.51992 1.66666 3.75326 1.66666H17.0866C17.3199 1.66666 17.5171 1.74722 17.6783 1.90833C17.8394 2.06944 17.9199 2.26666 17.9199 2.49999V17.5C17.9199 17.7333 17.8394 17.9306 17.6783 18.0917C17.5171 18.2528 17.3199 18.3333 17.0866 18.3333ZM16.2533 16.6667V3.33333H4.58659V16.6667H16.2533ZM7.08659 5.83333H13.7533V7.49999H7.08659V5.83333ZM7.08659 9.16666H13.7533V10.8333H7.08659V9.16666ZM7.08659 12.5H13.7533V14.1667H7.08659V12.5Z"/></svg>