<svg width="13" height="14" viewBox="0 0 13 14" fill="none" xmlns="http://www.w3.org/2000/svg">
<path d="M2.0004 11.0008H3.334V12.3344H11.3356V1.66557H3.334V2.99917H2.0004V0.998769C2.0004 0.812065 2.06486 0.654255 2.19377 0.525341C2.32269 0.396426 2.4805 0.331968 2.6672 0.331968H12.0024C12.1891 0.331968 12.3469 0.396426 12.4758 0.525341C12.6047 0.654255 12.6692 0.812065 12.6692 0.998769V13.0012C12.6692 13.1879 12.6047 13.3457 12.4758 13.4746C12.3469 13.6035 12.1891 13.668 12.0024 13.668H2.6672C2.4805 13.668 2.32269 13.6035 2.19377 13.4746C2.06486 13.3457 2.0004 13.1879 2.0004 13.0012V11.0008ZM3.334 6.33317H8.0016V7.66677H3.334V9.66717L0 6.99997L3.334 4.33277V6.33317Z" fill="#9CA3AF"/>
</svg>
